<svg width="25" height="25" viewBox="0 0 25 25" fill="none" xmlns="http://www.w3.org/2000/svg">
<g clip-path="url(#clip0)">
<path d="M12.4908 0C14.6211 0.00119082 16.7157 0.54742 18.5756 1.5868C20.4356 2.62617 21.9991 4.12418 23.1177 5.93851C24.2362 7.75284 24.8727 9.82324 24.9666 11.953C25.0605 14.0828 24.6086 16.2012 23.6541 18.1071L24.9633 23.3439C25.0128 23.5454 25.0085 23.7564 24.951 23.9558C24.8935 24.1552 24.7847 24.336 24.6356 24.4801C24.4864 24.6242 24.302 24.7267 24.1009 24.7772C23.8998 24.8278 23.6889 24.8246 23.4894 24.7681L18.6264 23.3968C16.9624 24.3314 15.1064 24.872 13.2011 24.977C11.2957 25.082 9.3917 24.7487 7.63513 24.0027C5.87856 23.2566 4.31618 22.1177 3.06795 20.6733C1.81972 19.2289 0.918825 17.5175 0.434444 15.6704C-0.0499368 13.8233 -0.104925 11.8898 0.273702 10.0181C0.652329 8.14646 1.4545 6.38653 2.61863 4.87343C3.78276 3.36034 5.27788 2.13432 6.98921 1.28952C8.70054 0.444712 10.5826 0.00358307 12.4908 0V0ZM19.645 5.34058C18.3001 3.99435 16.6033 3.05469 14.7492 2.62935C12.895 2.20402 10.9587 2.31022 9.1621 2.93578C7.36554 3.56135 5.78152 4.68095 4.59169 6.16619C3.40187 7.65144 2.65441 9.44219 2.43504 11.3331C2.21567 13.224 2.53326 15.1385 3.35141 16.857C4.16955 18.5756 5.45511 20.0286 7.06066 21.0494C8.66622 22.0702 10.5268 22.6176 12.4289 22.6287C14.3311 22.6397 16.1979 22.1141 17.8152 21.1121C17.9563 21.0181 18.1159 20.9555 18.2831 20.9285C18.4504 20.9014 18.6216 20.9106 18.785 20.9554L22.1598 21.9259L21.2449 18.2638C21.1644 17.9671 21.2016 17.6507 21.3486 17.3808C21.7606 16.6386 22.0762 15.8469 22.2879 15.0248C22.7227 13.3191 22.7077 11.5297 22.2444 9.83152C21.7812 8.13334 20.8855 6.58453 19.645 5.33651V5.34058Z" fill="black"/>
</g>
<defs>
<clipPath id="clip0">
<rect width="25" height="25" fill="white"/>
</clipPath>
</defs>
</svg>
