<svg width="25" height="25" viewBox="0 0 25 25" fill="none" xmlns="http://www.w3.org/2000/svg">
<path d="M22.9555 3.06833C21.6624 1.67843 19.8505 0.887599 17.9521 0.884667C16.0522 0.886866 14.2383 1.67728 12.9432 3.06744L12.5018 3.53385L12.0605 3.06744C9.49063 0.301619 5.16518 0.142782 2.39941 2.7126C2.27685 2.82652 2.15849 2.94483 2.04457 3.06744C-0.681522 6.00786 -0.681522 10.5521 2.04457 13.4926L11.8532 23.8364C12.1925 24.1946 12.758 24.21 13.1163 23.8706C13.128 23.8595 13.1394 23.8481 13.1505 23.8364L22.9556 13.4926C25.6815 10.5525 25.6815 6.00844 22.9555 3.06833ZM21.6627 12.2622H21.6618L12.5018 21.9234L3.34102 12.2622C1.25844 10.0155 1.25844 6.54364 3.34102 4.29688C5.23225 2.24708 8.42715 2.11856 10.477 4.00978C10.5765 4.10161 10.6722 4.19736 10.7641 4.29688L11.8532 5.44591C12.2121 5.80254 12.7916 5.80254 13.1505 5.44591L14.2397 4.29777C16.1309 2.24797 19.3258 2.11945 21.3756 4.01067C21.4751 4.1025 21.5709 4.19825 21.6627 4.29777C23.7634 6.54809 23.7788 10.0263 21.6627 12.2622Z" fill="black"/>
</svg>
