<svg width="25" height="25" viewBox="0 0 25 25" fill="none" xmlns="http://www.w3.org/2000/svg">
<g clip-path="url(#clip0)">
<path d="M21.3532 20.8333C21.2678 20.8333 21.1824 20.8187 21.1012 20.7916L0.528237 13.7604C0.232403 13.6583 0.0261534 13.3916 0.00115335 13.0802C-0.0217633 12.7687 0.141778 12.4729 0.41782 12.3281L23.8553 0.0884997C24.1168 -0.0458753 24.4324 -0.0250419 24.6699 0.14475C24.9095 0.315583 25.0334 0.605166 24.9907 0.896833L22.1262 20.1677C22.0918 20.3968 21.9574 20.5989 21.7584 20.7198C21.6355 20.7948 21.4949 20.8333 21.3532 20.8333V20.8333ZM2.75532 12.8697L20.7178 19.0093L23.2189 2.18433L2.75532 12.8697Z" fill="black"/>
<path d="M9.896 23.9583C9.81475 23.9583 9.73245 23.9458 9.65329 23.9198C9.33141 23.8135 9.11475 23.5146 9.11475 23.1771V16.1458C9.11475 15.9489 9.18975 15.7573 9.32412 15.6125L23.647 0.247895C23.9408 -0.0687715 24.4377 -0.0843965 24.7522 0.209354C25.0679 0.503104 25.0845 0.997895 24.7908 1.31456L10.6772 16.4531V20.7948L13.2845 17.2458C13.5397 16.9 14.0293 16.8229 14.3772 17.0791C14.7252 17.3344 14.7991 17.8239 14.5439 18.1719L10.5262 23.6406C10.3752 23.8437 10.1397 23.9583 9.896 23.9583V23.9583Z" fill="black"/>
</g>
<defs>
<clipPath id="clip0">
<rect width="25" height="25" fill="white"/>
</clipPath>
</defs>
</svg>
