<svg width="25" height="25" viewBox="0 0 25 25" fill="none" xmlns="http://www.w3.org/2000/svg">
<path d="M7.19257 0H17.8074C19.7826 0 21.5797 0.805664 22.8836 2.09961C24.1895 3.39559 25 5.18392 25 7.14925V17.8528C25 19.814 24.1895 21.6003 22.8877 22.8963L22.8836 22.9004C21.5777 24.1964 19.7806 25 17.8095 25H7.19257C5.21533 25 3.41616 24.1943 2.11233 22.9004L2.06321 22.8455C0.790077 21.5556 0 19.7896 0 17.8507V7.14925C0 5.18188 0.808498 3.39559 2.11233 2.09961C3.41616 0.80363 5.21328 0 7.19257 0ZM18.7306 6.31104L18.7449 6.33341H23.166C22.988 5.17782 22.4333 4.14022 21.635 3.34473C20.6525 2.36816 19.2975 1.76188 17.8074 1.76188H15.9919L18.7306 6.31104ZM16.6858 6.33341L13.9328 1.76188H7.89463L10.6804 6.33341H16.6858ZM8.61921 6.33341L5.92558 1.9104C4.94105 2.1464 4.05887 2.653 3.36499 3.34473C2.56673 4.13818 2.01408 5.17782 1.83396 6.33341H8.61921V6.33341ZM23.2274 8.0953H1.77256V17.8528C1.77256 19.3115 2.36409 20.6401 3.31996 21.6126L3.36499 21.6553C4.34747 22.6318 5.70452 23.2402 7.19257 23.2402H17.8074C19.2975 23.2402 20.6525 22.6339 21.633 21.6593L21.6371 21.6553C22.6175 20.6807 23.2274 19.3339 23.2274 17.8528V8.0953V8.0953ZM10.4286 11.1796L15.9203 14.7298C16.0083 14.7868 16.0881 14.86 16.1515 14.9495C16.4013 15.3097 16.3092 15.804 15.9469 16.0522L10.4777 19.2607C10.3406 19.3726 10.1646 19.4397 9.97012 19.4397C9.528 19.4397 9.16981 19.0837 9.16981 18.6442V11.8306H9.1739C9.1739 11.674 9.22098 11.5153 9.31718 11.377C9.57098 11.0168 10.0684 10.9294 10.4286 11.1796Z" fill="black"/>
</svg>
