<svg width="25" height="25" viewBox="0 0 25 25" fill="none" xmlns="http://www.w3.org/2000/svg">
<path d="M11.0095 0C4.93901 0 0 4.93901 0 11.0095C0 17.0803 4.93901 22.0189 11.0095 22.0189C17.0803 22.0189 22.0189 17.0803 22.0189 11.0095C22.0189 4.93901 17.0803 0 11.0095 0ZM11.0095 19.9865C6.05962 19.9865 2.03252 15.9594 2.03252 11.0095C2.03252 6.05967 6.05962 2.03252 11.0095 2.03252C15.9593 2.03252 19.9864 6.05962 19.9864 11.0095C19.9864 15.9593 15.9593 19.9865 11.0095 19.9865Z" fill="black"/>
<path d="M24.7022 23.2651L18.8757 17.4385C18.4786 17.0415 17.8357 17.0415 17.4386 17.4385C17.0416 17.8352 17.0416 18.4788 17.4386 18.8755L23.2652 24.7021C23.4637 24.9006 23.7236 24.9998 23.9837 24.9998C24.2435 24.9998 24.5037 24.9006 24.7022 24.7021C25.0993 24.3054 25.0993 23.6618 24.7022 23.2651Z" fill="black"/>
</svg>
